<?xml version="1.0" encoding="utf-8"?>
<!-- Generator: Adobe Illustrator 16.0.0, SVG Export Plug-In . SVG Version: 6.00 Build 0)  -->
<!DOCTYPE svg PUBLIC "-//W3C//DTD SVG 1.1//EN" "http://www.w3.org/Graphics/SVG/1.1/DTD/svg11.dtd">
<svg version="1.1" id="Layer_1" xmlns="http://www.w3.org/2000/svg" xmlns:xlink="http://www.w3.org/1999/xlink" x="0px" y="0px"
	 width="450px" height="450px" viewBox="1.07 86.445 450 450" enable-background="new 1.07 86.445 450 450" xml:space="preserve">
<g id="Layer_502">
	<path fill="#55596B" d="M164.405,100.904h-100c-27.625,0-50.075,22.525-50.075,50.146v100c0,27.612,22.45,49.854,50.075,49.854h100
		c27.612,0,49.925-22.242,49.925-49.854v-100C214.329,123.429,192.017,100.904,164.405,100.904z M164.121,175.954
		c0.05,1.079,0.066,2.175,0.066,3.267c0,33.362-25.792,71.825-72.967,71.825c-14.479,0-27.962-4.175-39.321-11.338
		c2.012,0.233,4.046,0.354,6.121,0.354c12.021,0,23.075-4.038,31.854-10.809c-11.221-0.204-20.688-7.508-23.958-17.533
		c1.571,0.296,3.175,0.454,4.825,0.454c2.346,0,4.608-0.309,6.763-0.883c-11.734-2.325-20.575-12.529-20.575-24.758
		c0-0.104,0-0.212,0-0.317c3.458,1.888,7.417,3.021,11.617,3.154c-6.875-4.525-11.413-12.254-11.413-21.008
		c0-4.629,1.271-8.967,3.475-12.692c12.65,15.271,31.546,25.321,52.858,26.375c-0.43-1.85-0.658-3.771-0.658-5.75
		c0-13.941,11.483-25.246,25.642-25.246c7.379,0,14.046,3.066,18.717,7.975c5.842-1.133,11.337-3.238,16.291-6.133
		c-1.92,5.9-5.982,10.846-11.274,13.966c5.191-0.612,10.133-1.962,14.729-3.975C173.48,167.95,169.125,172.396,164.121,175.954z"/>
</g>
<g id="Layer_1_1_">
</g>
<g id="Layer_491">
	<path fill="#55596B" d="M387.665,101.048h-100c-27.621,0-50,22.388-50,50v100c0,27.621,22.379,50,50,50h100
		c27.612,0,50-22.379,50-50v-100C437.665,123.436,415.278,101.048,387.665,101.048z M304.332,263.548h-29.167v-83.333h29.167
		V263.548z M289.748,167.715c-8.054,0-14.583-6.529-14.583-14.583s6.529-14.583,14.583-14.583c8.055,0,14.584,6.529,14.584,14.583
		S297.803,167.715,289.748,167.715z M400.161,217.752v45.796h-25v-40.6c0-9.688-1.071-22.142-14.346-22.142
		c-13.476,0-15.534,10.546-15.534,21.438v41.304h-24.283v-83.333h23.233v11.246h0.358c3.459-6.567,11.917-11.246,24.513-11.246
		c26.213,0,31.063,15.05,31.063,37.537H400.161z"/>
</g>
<g>
	<path fill="#55596B" d="M387.665,320.945h-100c-27.621,0-50,22.379-50,50v99.992c0,27.621,22.379,50.008,50,50.008h100
		c27.612,0,50-22.387,50-50.008v-99.992C437.665,343.324,415.278,320.945,387.665,320.945z M384.044,420.741
		c-4.912,10.792-15.004,14.825-31.3,16.496c5.283,3.321,6.8,7.487,6.8,18.771c0,11.279-0.154,12.796-0.116,15.388
		c0.058,4.259,6.304,6.3,6.066,7.671c-0.237,1.362-5.221,1.15-7.554,0.329c-6.613-2.296-5.95-7.792-5.95-7.792l-0.217-15.087
		c0,0,0.45-8.113-2.555-8.113v24.688c0,5.362,3.763,6.987,3.763,8.971c0,3.412-6.866-0.325-8.983-2.45
		c-3.225-3.233-2.854-10.096-2.778-15.521c0.079-5.242-0.046-16.7-0.046-16.7l-2.188,0.046c0,0,0.896,25.037-1.154,29.596
		c-2.654,5.858-10.659,7.879-10.659,5.208c0-1.796,1.972-1.225,3.063-5.245c0.93-3.421,0.613-28.942,0.613-28.942
		s-2.563,1.517-2.563,6.296c0,2.188-0.063,14.688-0.063,18.404c0,4.679-6.65,7.346-9.846,7.346c-1.613,0-3.63-0.083-3.63-0.938
		c0-2.162,6.084-3.434,6.084-7.938c0-3.904-0.084-13.945-0.084-13.945s-3.066,0.529-7.438,0.529
		c-11.024,0-14.508-7.034-16.171-10.963c-2.154-5.125-4.954-7.534-7.929-9.454c-1.825-1.184-2.246-2.579-0.133-2.975
		c9.758-1.838,12.254,11.054,18.771,13.112c4.646,1.467,10.629,0.829,13.604-1.092c0.396-3.934,3.238-7.346,5.604-9.142
		c-16.575-1.588-26.399-7.338-31.5-16.588c-0.063,0-2.4-5.025-2.204-5.025c-1.592-4.691-2.3-10.066-2.32-16.083
		c0-10.658,3.324-14.679,7.787-20.362c-3.412-12.154,1.225-20.459,1.225-20.459s7.175-1.487,20.738,8.217
		c7.35-3.149,26.949-3.408,36.216-0.7c5.692-3.754,16.101-9.087,20.301-7.596c1.138,1.829,3.587,7.158,1.491,18.88
		c1.421,2.566,8.829,8.042,8.858,23.521c-0.108,5.704-0.713,10.525-1.813,14.601C386.048,415.7,384.428,420.75,384.044,420.741z"/>
</g>
<g id="Layer_438">
	<path fill="#55596B" d="M164.406,320.945H64.398c-27.612,0-49.992,22.379-49.992,50v99.992c0,27.621,22.379,50.008,49.992,50.008
		h100.008c27.612,0,50-22.387,50-50.008v-99.992C214.406,343.324,192.019,320.945,164.406,320.945z M97.965,391.811l43.313,25.059
		l-5.45,9.075l-43.329-25.063L97.965,391.811z M86.373,416.116l48.566,12.809l-2.796,10.175l-48.559-12.808L86.373,416.116z
		 M81.552,438.149l50.075,4.525l-0.979,10.491l-50.071-4.524L81.552,438.149z M130.419,456.183l0.005,10.538l-50.3,0.023
		l-0.005-10.537L130.419,456.183z M147.557,480.941c0,0,0,2.458-0.084,2.458v0.046H67.002c0,0-2.504,0-2.504-0.046h-0.092v-51.341
		h8.596v43.083h65.959v-43.083h8.596V480.941z M143.028,415.428L114.69,374.67l8.875-5.942l28.338,40.763L143.028,415.428z
		 M153.82,408.858l-8.592-48.608l10.583-1.805l8.596,48.604L153.82,408.858z"/>
</g>
</svg>
